<?xml version="1.0" standalone="no"?>
<svg xmlns="http://www.w3.org/2000/svg" xmlns:xlink="http://www.w3.org/1999/xlink" width="182pt" height="188pt" viewBox="0.00 0.00 181.58 188">
<g id="graph0" class="graph" transform="translate(47.47941233873867,166.179878192239) scale(0.6597539553864471)" data-name="">
<polygon fill="white" stroke="none" points="-4,4 -4,-184 177.58,-184 177.58,4 -4,4"/>
<!-- Base1 -->
<g id="node1" class="node" pointer-events="visible" data-name="Base1">

<polygon fill="none" stroke="black" points="90.28,-108 35.3,-108 35.3,-72 90.28,-72 90.28,-108"/>
<text text-anchor="middle" x="62.79" y="-85.8" font-family="consolas" font-size="14.00">Base1</text>
</g>
<!-- object -->
<g id="node2" class="node" pointer-events="visible" data-name="object">

<polygon fill="none" stroke="black" points="129.97,-180 67.61,-180 67.61,-144 129.97,-144 129.97,-180"/>
<text text-anchor="middle" x="98.79" y="-157.8" font-family="consolas" font-size="14.00">object</text>
</g>
<!-- Base1&#45;&gt;object -->
<g id="edge1" class="edge" data-name="Base1-&gt;object">

<path fill="none" stroke="black" d="M71.69,-108.3C75.66,-116.02 80.42,-125.29 84.85,-133.89"/>
<polygon fill="black" stroke="black" points="81.61,-135.26 89.3,-142.55 87.84,-132.06 81.61,-135.26"/>
</g>
<!-- Base1&#45;&gt;object -->

<!-- Base2 -->
<g id="node3" class="node" pointer-events="visible" data-name="Base2">

<polygon fill="none" stroke="black" points="162.28,-108 107.3,-108 107.3,-72 162.28,-72 162.28,-108"/>
<text text-anchor="middle" x="134.79" y="-85.8" font-family="consolas" font-size="14.00">Base2</text>
</g>
<!-- Base2&#45;&gt;object -->
<g id="edge2" class="edge" data-name="Base2-&gt;object">

<path fill="none" stroke="black" d="M125.89,-108.3C121.92,-116.02 117.16,-125.29 112.73,-133.89"/>
<polygon fill="black" stroke="black" points="109.74,-132.06 108.28,-142.55 115.96,-135.26 109.74,-132.06"/>
</g><g id="node4" class="node" pointer-events="visible" data-name="Derived1" data-comment="Base2-&gt;object">

<polygon fill="none" stroke="black" points="77.37,-36 0.21,-36 0.21,0 77.37,0 77.37,-36"/>
<text text-anchor="middle" x="38.79" y="-13.8" font-family="consolas" font-size="14.00">Derived1</text>
</g>
<!-- B -->
<g id="edge3" class="edge" data-name="Derived1-&gt;Base1" data-comment="B">

<path fill="none" stroke="black" d="M44.72,-36.3C47.28,-43.76 50.34,-52.68 53.2,-61.03"/>
<polygon fill="black" stroke="black" points="49.88,-62.14 56.43,-70.46 56.5,-59.87 49.88,-62.14"/>
</g>
<!-- Derived1&#45;&gt;Base1 -->
<g id="node5" class="node" pointer-events="visible" data-name="Derived2" data-comment="Derived1-&gt;Base1">

<polygon fill="none" stroke="black" points="173.37,-36 96.21,-36 96.21,0 173.37,0 173.37,-36"/>
<text text-anchor="middle" x="134.79" y="-13.8" font-family="consolas" font-size="14.00">Derived2</text>
</g>
<!-- Derived&#45;&gt;Base1 -->
<g id="edge4" class="edge" data-name="Derived2-&gt;Base1" data-comment="Derived-&gt;Base1">

<path fill="none" stroke="black" d="M116.99,-36.3C108.51,-44.55 98.2,-54.57 88.86,-63.65"/>
<polygon fill="black" stroke="black" points="86.45,-61.12 81.72,-70.6 91.33,-66.14 86.45,-61.12"/>
</g>
<!-- Derived2&#45;&gt;Base1 -->
<g id="edge5" class="edge" data-name="Derived2-&gt;Base2" data-comment="Derived2-&gt;Base1">

<path fill="none" stroke="black" d="M134.79,-36.3C134.79,-43.59 134.79,-52.27 134.79,-60.46"/>
<polygon fill="black" stroke="black" points="131.29,-60.38 134.79,-70.38 138.29,-60.38 131.29,-60.38"/>
</g>
</g>
</svg>